<svg xmlns="http://www.w3.org/2000/svg" xmlns:xlink="http://www.w3.org/1999/xlink" width="500" zoomAndPan="magnify" viewBox="0 0 375 374.999991" height="500" preserveAspectRatio="xMidYMid meet" version="1.0"><defs><clipPath id="eee508f5fc"><path d="M 79.765625 76 L 295.015625 76 L 295.015625 204 L 79.765625 204 Z M 79.765625 76 " clip-rule="nonzero"/></clipPath><clipPath id="4a1947b6d2"><path d="M 79.765625 202 L 152 202 L 152 305 L 79.765625 305 Z M 79.765625 202 " clip-rule="nonzero"/></clipPath><clipPath id="aceca83bb6"><path d="M 150 202 L 224 202 L 224 309.824219 L 150 309.824219 Z M 150 202 " clip-rule="nonzero"/></clipPath><clipPath id="c0f8c9737b"><path d="M 222 202 L 295.015625 202 L 295.015625 305 L 222 305 Z M 222 202 " clip-rule="nonzero"/></clipPath><clipPath id="33f706d11e"><path d="M 79.765625 48.074219 L 295.015625 48.074219 L 295.015625 78 L 79.765625 78 Z M 79.765625 48.074219 " clip-rule="nonzero"/></clipPath><clipPath id="57e986da13"><path d="M 315 197 L 336.273438 197 L 336.273438 220 L 315 220 Z M 315 197 " clip-rule="nonzero"/></clipPath><clipPath id="f99fc3e8a2"><path d="M 282 93.777344 L 302 93.777344 L 302 117 L 282 117 Z M 282 93.777344 " clip-rule="nonzero"/></clipPath><clipPath id="819ba272c8"><path d="M 38.523438 197 L 60 197 L 60 220 L 38.523438 220 Z M 38.523438 197 " clip-rule="nonzero"/></clipPath><clipPath id="894db6a22d"><path d="M 73 93.777344 L 93 93.777344 L 93 117 L 73 117 Z M 73 93.777344 " clip-rule="nonzero"/></clipPath><clipPath id="b849393988"><path d="M 158 93.777344 L 185 93.777344 L 185 131 L 158 131 Z M 158 93.777344 " clip-rule="nonzero"/></clipPath><clipPath id="62e52e87fd"><path d="M 190 93.777344 L 217 93.777344 L 217 131 L 190 131 Z M 190 93.777344 " clip-rule="nonzero"/></clipPath><clipPath id="420d2a538a"><path d="M 225 170 L 261.539062 170 L 261.539062 210 L 225 210 Z M 225 170 " clip-rule="nonzero"/></clipPath><clipPath id="f8c91a9bf5"><path d="M 113.789062 170 L 150 170 L 150 210 L 113.789062 210 Z M 113.789062 170 " clip-rule="nonzero"/></clipPath><clipPath id="83906cb458"><path d="M 113.789062 125 L 150 125 L 150 165 L 113.789062 165 Z M 113.789062 125 " clip-rule="nonzero"/></clipPath><clipPath id="2f32b36e48"><path d="M 190 204 L 217 204 L 217 241.527344 L 190 241.527344 Z M 190 204 " clip-rule="nonzero"/></clipPath><clipPath id="e9cd523dc8"><path d="M 158 204 L 185 204 L 185 241.527344 L 158 241.527344 Z M 158 204 " clip-rule="nonzero"/></clipPath><clipPath id="0cccbc5075"><path d="M 225 125 L 261.539062 125 L 261.539062 165 L 225 165 Z M 225 125 " clip-rule="nonzero"/></clipPath></defs><g clip-path="url(#eee508f5fc)"><path fill="#005a9a" d="M 79.800781 76.882812 L 295.195312 76.882812 L 295.195312 203.878906 L 79.800781 203.878906 Z M 79.800781 76.882812 " fill-opacity="1" fill-rule="nonzero"/></g><g clip-path="url(#4a1947b6d2)"><path fill="#005a9a" d="M 151.613281 304.207031 L 151.613281 202.628906 L 79.800781 202.628906 C 79.800781 249.542969 109.785156 289.433594 151.613281 304.207031 Z M 151.613281 304.207031 " fill-opacity="1" fill-rule="nonzero"/></g><g clip-path="url(#aceca83bb6)"><path fill="#005a9a" d="M 223.382812 202.628906 L 150.835938 202.628906 L 150.835938 303.90625 C 162.082031 307.871094 174.917969 310.324219 187.496094 310.324219 C 200.078125 310.324219 212.183594 308.171875 223.382812 304.207031 Z M 223.382812 202.628906 " fill-opacity="1" fill-rule="nonzero"/></g><g clip-path="url(#c0f8c9737b)"><path fill="#005a9a" d="M 295.195312 202.628906 L 222.605469 202.628906 L 222.605469 304.464844 C 264.4375 289.691406 295.195312 249.542969 295.195312 202.628906 Z M 295.195312 202.628906 " fill-opacity="1" fill-rule="nonzero"/></g><g clip-path="url(#33f706d11e)"><path fill="#005a9a" d="M 79.800781 47.328125 L 295.195312 47.328125 L 295.195312 77.957031 L 79.800781 77.957031 Z M 79.800781 47.328125 " fill-opacity="1" fill-rule="nonzero"/></g><path fill="#ffce30" d="M 187.503906 301.839844 C 189.234375 305.164062 191.101562 308.453125 193.113281 311.710938 C 198.347656 320.671875 216.359375 326.914062 234.324219 322.726562 C 231.429688 320.183594 228.65625 317.558594 225.996094 314.855469 C 218.519531 307.539062 204.285156 303.855469 187.496094 301.839844 Z M 187.503906 301.839844 " fill-opacity="1" fill-rule="nonzero"/><path fill="#ffce30" d="M 210.609375 302.441406 C 212.316406 299.199219 213.851562 295.933594 215.222656 292.644531 C 219.226562 283.667969 228.921875 276.359375 239.550781 271.691406 C 239.453125 275.128906 239.203125 278.589844 238.800781 282.070312 C 237.988281 291.511719 226.804688 301.414062 210.617188 302.433594 Z M 210.609375 302.441406 " fill-opacity="1" fill-rule="nonzero"/><path fill="#ffce30" d="M 217.90625 301.730469 C 220.109375 304.414062 222.425781 307.039062 224.851562 309.605469 C 231.269531 316.730469 247.8125 318.753906 262.707031 311.535156 C 259.628906 309.734375 256.644531 307.847656 253.746094 305.871094 C 245.664062 300.570312 232.394531 299.96875 217.90625 301.730469 Z M 217.90625 301.730469 " fill-opacity="1" fill-rule="nonzero"/><path fill="#ffce30" d="M 237.683594 297.460938 C 238.445312 294.140625 239.070312 290.828125 239.550781 287.519531 C 241.09375 278.453125 248.1875 269.769531 257.042969 263.453125 C 257.605469 266.65625 258.046875 269.902344 258.371094 273.195312 C 259.46875 282.082031 251.425781 293.261719 237.679688 297.460938 Z M 237.683594 297.460938 " fill-opacity="1" fill-rule="nonzero"/><path fill="#ffce30" d="M 245.308594 294.808594 C 247.820312 296.800781 250.417969 298.730469 253.101562 300.589844 C 260.261719 305.792969 275.066406 304.367188 286.941406 295.042969 C 283.820312 293.957031 280.761719 292.78125 277.761719 291.515625 C 269.453125 288.167969 257.429688 290.171875 245.300781 294.808594 Z M 245.308594 294.808594 " fill-opacity="1" fill-rule="nonzero"/><path fill="#ffce30" d="M 261.695312 286.890625 C 261.667969 283.699219 261.523438 280.535156 261.269531 277.402344 C 260.746094 268.785156 265.441406 259.386719 272.488281 251.902344 C 273.585938 254.757812 274.589844 257.671875 275.503906 260.644531 C 278.160156 268.640625 272.988281 280.34375 261.703125 286.890625 Z M 261.695312 286.890625 " fill-opacity="1" fill-rule="nonzero"/><path fill="#ffce30" d="M 269.246094 282.078125 C 271.914062 283.386719 274.640625 284.621094 277.429688 285.777344 C 284.917969 289.078125 297.773438 284.933594 306.746094 274.324219 C 303.699219 273.898438 300.691406 273.386719 297.722656 272.789062 C 289.535156 271.273438 278.996094 275.386719 269.246094 282.078125 Z M 269.246094 282.078125 " fill-opacity="1" fill-rule="nonzero"/><path fill="#ffce30" d="M 282.25 271.617188 C 281.570312 268.707031 280.804688 265.847656 279.953125 263.03125 C 277.75 255.257812 280.261719 245.710938 285.484375 237.496094 C 287 239.925781 288.441406 242.425781 289.8125 244.988281 C 293.683594 251.855469 291.09375 263.46875 282.25 271.617188 Z M 282.25 271.617188 " fill-opacity="1" fill-rule="nonzero"/><path fill="#ffce30" d="M 289.261719 264.550781 C 291.941406 265.203125 294.65625 265.78125 297.410156 266.28125 C 304.851562 267.789062 315.585938 261.605469 321.789062 250.410156 C 318.921875 250.578125 316.082031 250.664062 313.265625 250.667969 C 305.515625 250.800781 296.660156 256.53125 289.261719 264.550781 Z M 289.261719 264.550781 " fill-opacity="1" fill-rule="nonzero"/><path fill="#ffce30" d="M 298.9375 252.519531 C 297.753906 250.011719 296.507812 247.558594 295.199219 245.160156 C 291.703125 238.511719 292.269531 229.265625 295.695312 220.722656 C 297.503906 222.6875 299.257812 224.71875 300.96875 226.816406 C 305.714844 232.425781 305.402344 243.4375 298.949219 252.519531 Z M 298.9375 252.519531 " fill-opacity="1" fill-rule="nonzero"/><path fill="#ffce30" d="M 304.886719 243.238281 C 307.445312 243.292969 310.023438 243.273438 312.617188 243.1875 C 319.664062 243.078125 328.171875 235.511719 331.78125 224.320312 C 329.207031 224.992188 326.636719 225.589844 324.066406 226.113281 C 317.027344 227.65625 309.996094 234.523438 304.886719 243.238281 Z M 304.886719 243.238281 " fill-opacity="1" fill-rule="nonzero"/><path fill="#ffce30" d="M 311.355469 230.476562 C 309.804688 228.433594 308.207031 226.453125 306.566406 224.527344 C 302.144531 219.167969 301.007812 210.585938 302.691406 202.078125 C 304.679688 203.558594 306.636719 205.105469 308.5625 206.714844 C 313.871094 210.984375 315.523438 221.035156 311.355469 230.476562 Z M 311.355469 230.476562 " fill-opacity="1" fill-rule="nonzero"/><g clip-path="url(#57e986da13)"><path fill="#ffce30" d="M 315.667969 219.148438 C 317.992188 218.683594 320.320312 218.15625 322.652344 217.570312 C 329.007812 216.074219 335.234375 207.707031 336.464844 197.003906 C 334.253906 198.078125 332.035156 199.09375 329.800781 200.042969 C 323.710938 202.742188 318.601562 210.292969 315.667969 219.140625 Z M 315.667969 219.148438 " fill-opacity="1" fill-rule="nonzero"/></g><path fill="#ffce30" d="M 319.09375 206.390625 C 317.308594 204.847656 315.492188 203.363281 313.652344 201.929688 C 308.652344 197.929688 306.070312 190.289062 306.09375 182.128906 C 308.160156 183.136719 310.207031 184.199219 312.242188 185.320312 C 317.816406 188.277344 321.105469 197.082031 319.09375 206.390625 Z M 319.09375 206.390625 " fill-opacity="1" fill-rule="nonzero"/><path fill="#ffce30" d="M 321.140625 193.289062 C 323.136719 192.40625 325.121094 191.46875 327.097656 190.484375 C 332.503906 187.886719 336.476562 179.242188 335.578125 169.421875 C 333.792969 170.792969 331.988281 172.117188 330.15625 173.394531 C 325.195312 176.960938 322.035156 184.761719 321.136719 193.289062 Z M 321.140625 193.289062 " fill-opacity="1" fill-rule="nonzero"/><path fill="#ffce30" d="M 321.753906 181.140625 C 319.855469 180.097656 317.941406 179.101562 316.015625 178.152344 C 310.765625 175.488281 306.996094 168.988281 305.480469 161.441406 C 307.527344 162 309.570312 162.609375 311.609375 163.269531 C 317.183594 164.984375 321.78125 172.367188 321.753906 181.136719 Z M 321.753906 181.140625 " fill-opacity="1" fill-rule="nonzero"/><path fill="#ffce30" d="M 320.859375 166.664062 C 322.449219 165.472656 324.023438 164.242188 325.578125 162.96875 C 329.847656 159.566406 331.636719 151.105469 328.886719 142.457031 C 327.570312 144.023438 326.226562 145.554688 324.859375 147.042969 C 321.152344 151.175781 319.917969 158.835938 320.859375 166.675781 Z M 320.859375 166.664062 " fill-opacity="1" fill-rule="nonzero"/><path fill="#ffce30" d="M 318.925781 155.621094 C 317.027344 155.042969 315.125 154.507812 313.222656 154.015625 C 308.011719 152.605469 303.324219 147.34375 300.414062 140.632812 C 302.359375 140.796875 304.3125 141 306.269531 141.242188 C 311.601562 141.835938 317.179688 147.714844 318.925781 155.621094 Z M 318.925781 155.621094 " fill-opacity="1" fill-rule="nonzero"/><path fill="#ffce30" d="M 314.335938 140.292969 C 315.46875 138.90625 316.582031 137.488281 317.671875 136.042969 C 320.675781 132.152344 320.429688 124.265625 316.144531 116.972656 C 315.316406 118.625 314.457031 120.253906 313.570312 121.851562 C 311.1875 126.261719 311.78125 133.441406 314.335938 140.285156 Z M 314.335938 140.292969 " fill-opacity="1" fill-rule="nonzero"/><path fill="#ffce30" d="M 310.203125 130.710938 C 308.402344 130.546875 306.601562 130.421875 304.8125 130.328125 C 299.894531 130.015625 294.558594 126.039062 290.449219 120.328125 C 292.226562 120.148438 294.011719 120.007812 295.808594 119.898438 C 300.695312 119.539062 306.929688 123.902344 310.203125 130.710938 Z M 310.203125 130.710938 " fill-opacity="1" fill-rule="nonzero"/><g clip-path="url(#f99fc3e8a2)"><path fill="#ffce30" d="M 301.992188 116.28125 C 299.960938 114.535156 297.875 112.851562 295.730469 111.230469 C 289.933594 106.804688 284.824219 100.191406 282.457031 93.789062 C 285.003906 95.171875 287.496094 96.625 289.933594 98.144531 C 296.679688 102.289062 301.625 109.984375 301.976562 116.28125 Z M 301.992188 116.28125 " fill-opacity="1" fill-rule="nonzero"/></g><path fill="#ffce30" d="M 187.503906 301.839844 C 185.777344 305.164062 183.90625 308.453125 181.894531 311.710938 C 176.660156 320.671875 158.644531 326.914062 140.683594 322.726562 C 143.578125 320.183594 146.351562 317.558594 149.011719 314.855469 C 156.488281 307.539062 170.722656 303.855469 187.511719 301.839844 Z M 187.503906 301.839844 " fill-opacity="1" fill-rule="nonzero"/><path fill="#ffce30" d="M 164.398438 302.441406 C 162.691406 299.207031 161.15625 295.945312 159.789062 292.652344 C 155.789062 283.675781 146.09375 276.367188 135.464844 271.699219 C 135.5625 275.136719 135.8125 278.597656 136.210938 282.078125 C 137.027344 291.519531 148.210938 301.421875 164.398438 302.441406 Z M 164.398438 302.441406 " fill-opacity="1" fill-rule="nonzero"/><path fill="#ffce30" d="M 157.101562 301.730469 C 154.898438 304.414062 152.582031 307.039062 150.15625 309.605469 C 143.738281 316.730469 127.195312 318.753906 112.300781 311.535156 C 115.375 309.734375 118.363281 307.847656 121.261719 305.871094 C 129.34375 300.570312 142.613281 299.96875 157.101562 301.730469 Z M 157.101562 301.730469 " fill-opacity="1" fill-rule="nonzero"/><path fill="#ffce30" d="M 137.324219 297.460938 C 136.5625 294.140625 135.9375 290.828125 135.457031 287.519531 C 133.914062 278.453125 126.820312 269.769531 117.964844 263.453125 C 117.402344 266.65625 116.960938 269.902344 116.636719 273.195312 C 115.539062 282.082031 123.582031 293.261719 137.328125 297.460938 Z M 137.324219 297.460938 " fill-opacity="1" fill-rule="nonzero"/><path fill="#ffce30" d="M 129.699219 294.808594 C 127.1875 296.800781 124.589844 298.730469 121.90625 300.589844 C 114.746094 305.792969 99.941406 304.367188 88.066406 295.042969 C 91.1875 293.957031 94.246094 292.78125 97.246094 291.515625 C 105.554688 288.167969 117.578125 290.171875 129.707031 294.808594 Z M 129.699219 294.808594 " fill-opacity="1" fill-rule="nonzero"/><path fill="#ffce30" d="M 113.3125 286.890625 C 113.339844 283.699219 113.484375 280.535156 113.738281 277.402344 C 114.261719 268.785156 109.566406 259.386719 102.519531 251.902344 C 101.417969 254.757812 100.414062 257.671875 99.503906 260.644531 C 96.847656 268.640625 102.019531 280.34375 113.304688 286.890625 Z M 113.3125 286.890625 " fill-opacity="1" fill-rule="nonzero"/><path fill="#ffce30" d="M 105.761719 282.078125 C 103.09375 283.386719 100.367188 284.621094 97.578125 285.777344 C 90.085938 289.078125 77.242188 284.933594 68.269531 274.324219 C 71.3125 273.898438 74.320312 273.386719 77.289062 272.789062 C 85.480469 271.273438 96.015625 275.386719 105.765625 282.078125 Z M 105.761719 282.078125 " fill-opacity="1" fill-rule="nonzero"/><path fill="#ffce30" d="M 92.761719 271.617188 C 93.441406 268.707031 94.207031 265.847656 95.0625 263.03125 C 97.261719 255.257812 94.75 245.710938 89.527344 237.496094 C 88.015625 239.925781 86.570312 242.425781 85.199219 244.988281 C 81.332031 251.855469 83.917969 263.46875 92.761719 271.617188 Z M 92.761719 271.617188 " fill-opacity="1" fill-rule="nonzero"/><path fill="#ffce30" d="M 85.75 264.550781 C 83.070312 265.203125 80.351562 265.78125 77.601562 266.28125 C 70.160156 267.789062 59.425781 261.605469 53.222656 250.410156 C 56.089844 250.578125 58.929688 250.664062 61.742188 250.667969 C 69.496094 250.800781 78.351562 256.53125 85.75 264.550781 Z M 85.75 264.550781 " fill-opacity="1" fill-rule="nonzero"/><path fill="#ffce30" d="M 76.070312 252.519531 C 77.253906 250.011719 78.503906 247.558594 79.816406 245.160156 C 83.3125 238.511719 82.746094 229.265625 79.320312 220.722656 C 77.515625 222.6875 75.757812 224.71875 74.050781 226.816406 C 69.300781 232.425781 69.613281 243.4375 76.070312 252.519531 Z M 76.070312 252.519531 " fill-opacity="1" fill-rule="nonzero"/><path fill="#ffce30" d="M 70.121094 243.238281 C 67.5625 243.292969 64.984375 243.273438 62.390625 243.1875 C 55.34375 243.078125 46.835938 235.507812 43.226562 224.320312 C 45.796875 224.992188 48.371094 225.589844 50.941406 226.113281 C 57.980469 227.65625 65.011719 234.523438 70.121094 243.238281 Z M 70.121094 243.238281 " fill-opacity="1" fill-rule="nonzero"/><path fill="#ffce30" d="M 63.652344 230.476562 C 65.203125 228.433594 66.800781 226.453125 68.441406 224.527344 C 72.863281 219.167969 74 210.585938 72.316406 202.078125 C 70.328125 203.558594 68.371094 205.105469 66.445312 206.714844 C 61.136719 210.984375 59.484375 221.035156 63.652344 230.476562 Z M 63.652344 230.476562 " fill-opacity="1" fill-rule="nonzero"/><g clip-path="url(#819ba272c8)"><path fill="#ffce30" d="M 59.339844 219.148438 C 57.011719 218.683594 54.6875 218.15625 52.355469 217.570312 C 46 216.074219 39.773438 207.707031 38.542969 197.003906 C 40.753906 198.078125 42.976562 199.09375 45.207031 200.042969 C 51.296875 202.742188 56.40625 210.292969 59.339844 219.140625 Z M 59.339844 219.148438 " fill-opacity="1" fill-rule="nonzero"/></g><path fill="#ffce30" d="M 55.914062 206.390625 C 57.699219 204.847656 59.511719 203.363281 61.351562 201.929688 C 66.351562 197.929688 68.933594 190.289062 68.910156 182.128906 C 66.84375 183.136719 64.796875 184.199219 62.761719 185.320312 C 57.1875 188.277344 53.898438 197.082031 55.910156 206.390625 Z M 55.914062 206.390625 " fill-opacity="1" fill-rule="nonzero"/><path fill="#ffce30" d="M 53.871094 193.289062 C 51.878906 192.40625 49.894531 191.46875 47.914062 190.484375 C 42.503906 187.886719 38.53125 179.242188 39.429688 169.421875 C 41.214844 170.792969 43.019531 172.117188 44.851562 173.394531 C 49.804688 176.960938 52.964844 184.761719 53.871094 193.289062 Z M 53.871094 193.289062 " fill-opacity="1" fill-rule="nonzero"/><path fill="#ffce30" d="M 53.253906 181.140625 C 55.152344 180.097656 57.066406 179.101562 58.992188 178.152344 C 64.242188 175.488281 68.011719 168.988281 69.527344 161.441406 C 67.480469 162 65.4375 162.609375 63.398438 163.269531 C 57.824219 164.984375 53.226562 172.367188 53.253906 181.136719 Z M 53.253906 181.140625 " fill-opacity="1" fill-rule="nonzero"/><path fill="#ffce30" d="M 54.15625 166.664062 C 52.566406 165.476562 50.992188 164.242188 49.4375 162.964844 C 45.167969 159.5625 43.378906 151.101562 46.128906 142.453125 C 47.445312 144.019531 48.789062 145.550781 50.15625 147.039062 C 53.871094 151.183594 55.097656 158.835938 54.15625 166.664062 Z M 54.15625 166.664062 " fill-opacity="1" fill-rule="nonzero"/><path fill="#ffce30" d="M 56.082031 155.621094 C 57.980469 155.042969 59.882812 154.507812 61.785156 154.015625 C 66.996094 152.605469 71.683594 147.34375 74.59375 140.632812 C 72.644531 140.796875 70.691406 141 68.738281 141.242188 C 63.40625 141.835938 57.828125 147.714844 56.082031 155.621094 Z M 56.082031 155.621094 " fill-opacity="1" fill-rule="nonzero"/><path fill="#ffce30" d="M 60.671875 140.292969 C 59.535156 138.90625 58.425781 137.488281 57.335938 136.042969 C 54.332031 132.152344 54.578125 124.265625 58.863281 116.972656 C 59.691406 118.625 60.550781 120.253906 61.4375 121.851562 C 63.820312 126.261719 63.226562 133.441406 60.671875 140.285156 Z M 60.671875 140.292969 " fill-opacity="1" fill-rule="nonzero"/><path fill="#ffce30" d="M 64.796875 130.710938 C 66.601562 130.546875 68.398438 130.421875 70.191406 130.328125 C 75.105469 130.015625 80.441406 126.039062 84.550781 120.328125 C 82.777344 120.148438 80.988281 120.007812 79.191406 119.898438 C 74.308594 119.539062 68.074219 123.902344 64.796875 130.710938 Z M 64.796875 130.710938 " fill-opacity="1" fill-rule="nonzero"/><g clip-path="url(#894db6a22d)"><path fill="#ffce30" d="M 73.015625 116.28125 C 75.046875 114.535156 77.132812 112.851562 79.277344 111.230469 C 85.074219 106.804688 90.183594 100.191406 92.550781 93.789062 C 90 95.171875 87.507812 96.625 85.074219 98.144531 C 78.328125 102.289062 73.378906 109.984375 73.03125 116.28125 Z M 73.015625 116.28125 " fill-opacity="1" fill-rule="nonzero"/></g><g clip-path="url(#b849393988)"><path fill="#ffce30" d="M 184.21875 93.777344 C 173.367188 96.058594 163.796875 109.5 158.136719 128.476562 C 166.785156 129.738281 175.480469 130.410156 184.21875 130.492188 Z M 184.21875 93.777344 " fill-opacity="1" fill-rule="nonzero"/></g><g clip-path="url(#62e52e87fd)"><path fill="#ffce30" d="M 190.777344 93.777344 L 190.777344 130.492188 C 199.519531 130.410156 208.214844 129.738281 216.863281 128.476562 C 211.199219 109.5 201.628906 96.058594 190.777344 93.777344 Z M 190.777344 93.777344 " fill-opacity="1" fill-rule="nonzero"/></g><path fill="#ffce30" d="M 184.21875 137.089844 C 174.90625 136.984375 165.640625 136.246094 156.425781 134.875 C 154.179688 144.519531 152.960938 154.289062 152.773438 164.1875 L 184.21875 164.1875 Z M 184.21875 137.089844 " fill-opacity="1" fill-rule="nonzero"/><g clip-path="url(#420d2a538a)"><path fill="#ffce30" d="M 225.148438 201.265625 C 235.058594 203.273438 243.207031 206.167969 248.011719 209.910156 C 250.007812 207.042969 251.789062 204.046875 253.359375 200.929688 C 254.933594 197.808594 256.273438 194.597656 257.390625 191.285156 C 258.507812 187.976562 259.386719 184.605469 260.027344 181.171875 C 260.664062 177.738281 261.058594 174.277344 261.210938 170.789062 L 228.785156 170.789062 C 228.621094 181.074219 227.410156 191.230469 225.148438 201.265625 Z M 225.148438 201.265625 " fill-opacity="1" fill-rule="nonzero"/></g><path fill="#ffce30" d="M 184.21875 170.789062 L 152.773438 170.789062 C 152.960938 180.6875 154.179688 190.457031 156.425781 200.101562 C 165.640625 198.730469 174.90625 197.992188 184.21875 197.886719 Z M 184.21875 170.789062 " fill-opacity="1" fill-rule="nonzero"/><g clip-path="url(#f8c91a9bf5)"><path fill="#ffce30" d="M 149.847656 201.265625 C 147.589844 191.230469 146.378906 181.074219 146.214844 170.789062 L 113.789062 170.789062 C 113.9375 174.277344 114.332031 177.738281 114.972656 181.171875 C 115.613281 184.605469 116.492188 187.976562 117.609375 191.285156 C 118.722656 194.597656 120.066406 197.8125 121.640625 200.929688 C 123.210938 204.050781 124.992188 207.042969 126.988281 209.910156 C 131.789062 206.167969 139.941406 203.277344 149.847656 201.265625 Z M 149.847656 201.265625 " fill-opacity="1" fill-rule="nonzero"/></g><path fill="#ffce30" d="M 190.777344 164.1875 L 222.222656 164.1875 C 222.035156 154.289062 220.820312 144.519531 218.574219 134.875 C 209.359375 136.246094 200.09375 136.984375 190.78125 137.089844 Z M 190.777344 164.1875 " fill-opacity="1" fill-rule="nonzero"/><g clip-path="url(#83906cb458)"><path fill="#ffce30" d="M 146.214844 164.1875 C 146.378906 153.90625 147.589844 143.746094 149.847656 133.710938 C 139.941406 131.703125 131.789062 128.808594 126.988281 125.066406 C 124.992188 127.933594 123.210938 130.929688 121.640625 134.046875 C 120.066406 137.167969 118.722656 140.378906 117.609375 143.691406 C 116.492188 147 115.613281 150.371094 114.972656 153.804688 C 114.332031 157.238281 113.9375 160.699219 113.789062 164.1875 Z M 146.214844 164.1875 " fill-opacity="1" fill-rule="nonzero"/></g><g clip-path="url(#2f32b36e48)"><path fill="#ffce30" d="M 190.777344 241.199219 C 201.628906 238.917969 211.199219 225.476562 216.863281 206.5 C 208.214844 205.238281 199.519531 204.566406 190.777344 204.488281 Z M 190.777344 241.199219 " fill-opacity="1" fill-rule="nonzero"/></g><path fill="#ffce30" d="M 168.261719 239.164062 C 161.203125 232.066406 155.390625 221.128906 151.503906 207.664062 C 141.058594 209.773438 134.089844 212.589844 130.886719 215.050781 C 133.292969 217.953125 135.90625 220.660156 138.730469 223.164062 C 141.550781 225.667969 144.546875 227.941406 147.71875 229.988281 C 150.886719 232.03125 154.195312 233.824219 157.640625 235.363281 C 161.082031 236.902344 164.625 238.167969 168.261719 239.164062 Z M 168.261719 239.164062 " fill-opacity="1" fill-rule="nonzero"/><path fill="#ffce30" d="M 130.886719 119.925781 C 134.089844 122.386719 141.058594 125.203125 151.503906 127.316406 C 155.394531 113.847656 161.203125 102.910156 168.265625 95.8125 C 164.625 96.808594 161.082031 98.074219 157.640625 99.613281 C 154.195312 101.152344 150.886719 102.945312 147.71875 104.992188 C 144.546875 107.035156 141.550781 109.308594 138.730469 111.8125 C 135.90625 114.320312 133.292969 117.023438 130.886719 119.925781 Z M 130.886719 119.925781 " fill-opacity="1" fill-rule="nonzero"/><path fill="#ffce30" d="M 244.113281 215.050781 C 240.910156 212.589844 233.941406 209.773438 223.492188 207.664062 C 219.605469 221.128906 213.796875 232.066406 206.734375 239.164062 C 210.375 238.167969 213.914062 236.902344 217.359375 235.363281 C 220.804688 233.824219 224.113281 232.03125 227.28125 229.984375 C 230.453125 227.941406 233.449219 225.667969 236.269531 223.164062 C 239.09375 220.65625 241.707031 217.953125 244.113281 215.050781 Z M 244.113281 215.050781 " fill-opacity="1" fill-rule="nonzero"/><path fill="#ffce30" d="M 206.734375 95.8125 C 213.796875 102.910156 219.605469 113.847656 223.492188 127.316406 C 233.941406 125.203125 240.910156 122.386719 244.113281 119.929688 C 241.707031 117.023438 239.09375 114.320312 236.269531 111.816406 C 233.449219 109.3125 230.453125 107.035156 227.28125 104.992188 C 224.113281 102.945312 220.804688 101.152344 217.359375 99.613281 C 213.914062 98.074219 210.375 96.808594 206.734375 95.8125 Z M 206.734375 95.8125 " fill-opacity="1" fill-rule="nonzero"/><g clip-path="url(#e9cd523dc8)"><path fill="#ffce30" d="M 184.21875 241.199219 L 184.21875 204.488281 C 175.480469 204.566406 166.785156 205.238281 158.136719 206.5 C 163.796875 225.476562 173.367188 238.917969 184.21875 241.199219 Z M 184.21875 241.199219 " fill-opacity="1" fill-rule="nonzero"/></g><path fill="#ffce30" d="M 190.777344 197.886719 C 200.09375 197.992188 209.359375 198.730469 218.574219 200.101562 C 220.820312 190.457031 222.035156 180.6875 222.222656 170.789062 L 190.777344 170.789062 Z M 190.777344 197.886719 " fill-opacity="1" fill-rule="nonzero"/><g clip-path="url(#0cccbc5075)"><path fill="#ffce30" d="M 225.148438 133.710938 C 227.410156 143.746094 228.621094 153.90625 228.785156 164.1875 L 261.210938 164.1875 C 261.058594 160.699219 260.664062 157.238281 260.027344 153.804688 C 259.386719 150.371094 258.507812 147 257.390625 143.691406 C 256.273438 140.382812 254.933594 137.167969 253.359375 134.046875 C 251.789062 130.929688 250.007812 127.933594 248.011719 125.066406 C 243.207031 128.808594 235.058594 131.703125 225.148438 133.710938 Z M 225.148438 133.710938 " fill-opacity="1" fill-rule="nonzero"/></g></svg>